<svg width="10" height="15" viewBox="0 0 10 15" fill="none" xmlns="http://www.w3.org/2000/svg">
<path d="M0.577862 14.6686C0.277471 14.4191 0.277471 13.958 0.577862 13.7085L8.39146 7.21682C8.62267 7.02472 8.95796 7.02472 9.18917 7.21682V7.21682C9.48956 7.46639 9.48956 7.92741 9.18917 8.17698L1.37558 14.6686C1.14436 14.8607 0.809074 14.8607 0.577862 14.6686V14.6686Z" fill="black"/>
<path d="M0.577842 0.331376C0.809054 0.139282 1.14434 0.139282 1.37556 0.331376L9.42216 7.01661C9.72255 7.26618 9.72255 7.7272 9.42216 7.97677V7.97677C9.19095 8.16886 8.85566 8.16886 8.62444 7.97677L0.577841 1.29154C0.277451 1.04197 0.277451 0.580945 0.577842 0.331376V0.331376Z" fill="black"/>
</svg>
