<svg width="40" height="40" viewBox="0 0 40 40" fill="none" xmlns="http://www.w3.org/2000/svg">
<path d="M40 20C40 16.0444 38.827 12.1776 36.6294 8.88859C34.4318 5.59961 31.3082 3.03616 27.6537 1.52241C23.9991 0.00865667 19.9778 -0.38741 16.0982 0.384294C12.2186 1.156 8.65491 3.06081 5.85786 5.85786C3.06081 8.65491 1.156 12.2186 0.384294 16.0982C-0.38741 19.9778 0.00865672 23.9991 1.52241 27.6537C3.03616 31.3082 5.59961 34.4318 8.88859 36.6294C12.1776 38.827 16.0444 40 20 40L20 34.3476C17.1623 34.3476 14.3884 33.5061 12.0289 31.9296C9.66948 30.353 7.83051 28.1122 6.74458 25.4906C5.65865 22.8689 5.37452 19.9841 5.92812 17.2009C6.48173 14.4178 7.8482 11.8613 9.85474 9.85474C11.8613 7.8482 14.4178 6.48173 17.2009 5.92812C19.9841 5.37452 22.8689 5.65865 25.4906 6.74458C28.1122 7.83051 30.353 9.66948 31.9296 12.0289C33.5061 14.3884 34.3476 17.1623 34.3476 20H40Z" fill="#000"/>
</svg>
